<svg width="170" height="48" viewBox="0 0 170 48" fill="none" xmlns="http://www.w3.org/2000/svg">
<g clip-path="url(#clip0_1165_589)">
<mask id="mask0_1165_589" style="mask-type:luminance" maskUnits="userSpaceOnUse" x="2" y="3" width="58" height="43">
<path d="M55.2345 3.27881H7.08037C4.47412 3.27881 2.36133 5.37486 2.36133 7.96047V41.1458C2.36133 43.7314 4.47412 45.8274 7.08037 45.8274H55.2345C57.8407 45.8274 59.9535 43.7314 59.9535 41.1458V7.96047C59.9535 5.37486 57.8407 3.27881 55.2345 3.27881Z" fill="white"/>
</mask>
<g mask="url(#mask0_1165_589)">
<path d="M55.3536 3.09473H7.19951C4.59326 3.09473 2.48047 5.19078 2.48047 7.77638V40.9617C2.48047 43.5473 4.59326 45.6433 7.19951 45.6433H55.3536C57.9598 45.6433 60.0726 43.5473 60.0726 40.9617V7.77638C60.0726 5.19078 57.9598 3.09473 55.3536 3.09473Z" fill="#1C544E"/>
<path d="M40.1953 59.4942C58.6343 59.4942 73.582 44.6649 73.582 26.372C73.582 8.07908 58.6343 -6.75024 40.1953 -6.75024C21.7563 -6.75024 6.80859 8.07908 6.80859 26.372C6.80859 44.6649 21.7563 59.4942 40.1953 59.4942Z" fill="#256D63"/>
<path d="M59.3575 64.4128C80.7187 64.4128 98.0354 47.2333 98.0354 26.0414C98.0354 4.8494 80.7187 -12.3301 59.3575 -12.3301C37.9963 -12.3301 20.6797 4.8494 20.6797 26.0414C20.6797 47.2333 37.9963 64.4128 59.3575 64.4128Z" fill="#2D7F71"/>
<path d="M74.6036 64.4128C95.9648 64.4128 113.281 47.2333 113.281 26.0414C113.281 4.8494 95.9648 -12.3301 74.6036 -12.3301C53.2424 -12.3301 35.9258 4.8494 35.9258 26.0414C35.9258 47.2333 53.2424 64.4128 74.6036 64.4128Z" fill="#3A9B88"/>
<path d="M16.4816 32.2164C14.9332 31.8254 13.4483 31.2982 12.1668 30.3119C12.0702 30.2388 11.8617 30.2186 11.7524 30.2716C10.7354 30.7433 9.72087 31.2175 8.72926 31.7346C8.50551 31.8531 8.37075 32.1432 8.19531 32.3551C8.44703 32.4913 8.69112 32.7133 8.96063 32.7587C11.5668 33.1976 14.1373 32.8949 16.7994 32.3677C16.6316 32.287 16.563 32.234 16.4842 32.2139L16.4816 32.2164ZM24.3992 34.3579C24.3535 33.5684 23.9212 33.2279 23.1228 33.185C22.9271 33.1749 22.7287 33.1446 22.533 33.1219C21.0303 32.9403 19.5276 32.7562 17.8978 32.5569C17.8648 33.3288 17.7682 34.088 17.8216 34.8372C17.8851 35.7201 18.4089 36.2649 19.2149 36.3355C20.354 36.4339 21.4981 36.5146 22.6398 36.502C24.0407 36.4894 24.4908 35.9799 24.3992 34.3605V34.3579ZM40.8625 30.0017C40.5192 29.3862 40.115 28.801 39.7692 28.2435C38.2131 29.2348 36.7689 30.1555 35.2713 31.1115C35.8383 32.171 36.0163 33.2783 35.9655 34.4361C35.9121 35.6242 36.2579 36.106 37.4681 36.2018C38.8488 36.3103 40.2421 36.2548 41.6278 36.2826C42.1897 36.2952 42.3118 36.0127 42.3219 35.5132C42.3702 33.5331 41.8185 31.7144 40.8625 30.0017ZM51.2235 17.957C49.3039 17.7274 47.8139 18.6002 46.446 19.7908C46.0672 20.1213 45.8765 20.4719 45.7951 20.9965C45.6832 21.7104 45.4646 22.4848 45.0501 23.0624C44.3306 24.0714 43.4381 24.9643 42.5838 25.8749C42.1999 26.2836 41.7346 26.614 41.1956 27.0782C45.2154 28.1779 48.7877 27.6583 52.0321 25.2847C52.9118 24.6415 53.6161 23.8292 54.0534 22.8127C55.0171 20.5728 53.6619 18.2521 51.2235 17.9595V17.957ZM49.9624 21.728C49.3725 21.7154 48.8538 21.2009 48.8615 20.6358C48.8666 20.0456 49.4437 19.5032 50.0336 19.536C50.626 19.5714 51.0964 20.0784 51.0812 20.6737C51.0659 21.269 50.5625 21.7432 49.9624 21.728ZM44.0407 19.5688C42.2355 18.6608 40.4557 17.7047 38.6809 16.7386C37.4046 16.0475 36.1816 15.2479 34.8798 14.6047C29.876 12.1251 25.0806 12.6926 20.5879 15.8306C18.1521 17.5307 16.685 20.0203 15.5459 22.6967C14.8035 24.4346 13.7788 25.9683 12.3524 27.2345C11.6939 27.8198 11.638 28.5033 12.2609 29.1213C12.6448 29.4997 13.1178 29.8175 13.6085 30.0445C16.9774 31.5959 20.532 32.3602 24.2543 32.4358C25.3527 32.3425 26.4587 32.2946 27.5495 32.1483C34.0407 31.2856 39.4208 28.3722 43.6898 23.4635C44.1857 22.8934 44.5772 22.2048 44.8823 21.5111C45.2917 20.5728 44.9484 20.0254 44.0407 19.5688ZM18.208 28.0493C18.8208 26.3845 19.4488 24.7272 20.0387 23.0549C20.1404 22.7698 20.1353 22.4116 20.0641 22.114C19.8734 21.3068 19.6776 20.4895 19.3751 19.7177C19.0954 19.0114 19.3954 18.6229 19.9675 18.1991C20.3311 19.2762 20.6998 20.2978 21.015 21.3396C21.1371 21.7482 21.3303 21.8718 21.76 21.8592C23.5703 21.8012 25.3807 21.7886 27.1935 21.7356C27.4198 21.7306 27.6741 21.6423 27.8546 21.5111C28.9962 20.6838 30.1124 19.8211 31.2515 18.9912C31.5566 18.7717 31.5897 18.5573 31.5007 18.2092C31.2007 17.0086 30.9362 15.7978 30.6464 14.5391C31.282 14.5189 31.6431 14.6576 31.7702 15.3059C31.9685 16.3149 32.2507 17.3062 32.5457 18.29C32.6169 18.5245 32.8508 18.7642 33.0745 18.8928C35.2052 20.1389 37.3486 21.3598 39.4895 22.5882C39.6776 22.6967 39.8633 22.8102 40.0539 22.9212C39.5124 23.7107 39.4768 23.7183 38.7242 23.2667C36.8732 22.1569 35.0222 21.0445 33.1686 19.9346C32.9449 19.8009 32.7135 19.6723 32.4694 19.5335C31.3405 20.5248 30.2218 21.4859 29.1412 22.4848C28.9988 22.6159 28.9632 22.9615 29.0115 23.1785C29.4005 24.9517 29.8175 26.72 30.2446 28.5538C29.8251 28.6673 29.431 28.7758 28.9581 28.9044C28.7267 27.6886 28.503 26.5358 28.2843 25.3805C28.1546 24.6919 27.9995 24.0058 27.9182 23.3121C27.8673 22.8657 27.697 22.732 27.2546 22.7395C25.3781 22.7648 23.4966 22.7698 21.6202 22.7547C21.2413 22.7522 21.0837 22.8758 20.9693 23.2289C20.4125 24.9795 19.8277 26.725 19.2505 28.4705C19.1971 28.632 19.1284 28.7909 19.0573 28.9725C18.7115 28.8968 18.3936 28.8237 17.9919 28.7329C18.0707 28.4806 18.1292 28.2587 18.2106 28.0443L18.208 28.0493ZM42.6245 22.732C36.8528 29.1012 29.6726 31.8355 21.0786 30.8669C18.7369 30.602 16.5045 29.9285 14.356 28.9776C13.9594 28.8035 13.5932 28.5614 13.2118 28.352C13.222 28.2763 13.2322 28.2006 13.2474 28.125C13.4737 28.125 13.7153 28.0695 13.9238 28.1325C15.4595 28.6017 16.9596 29.2525 18.5284 29.5552C28.269 31.4294 36.3824 28.5916 42.8228 21.0974C43.0923 20.7847 43.3085 20.5072 43.8093 20.9839C43.428 21.554 43.1 22.2073 42.6245 22.7295V22.732Z" fill="#1C544E"/>
<path d="M44.0381 19.5688C42.2329 18.6608 40.4556 17.7022 38.6783 16.7386C37.4019 16.0475 36.1789 15.2479 34.8771 14.6047C29.8733 12.1251 25.078 12.6926 20.5853 15.8306C18.1495 17.5307 16.6824 20.0203 15.5433 22.6967C14.8009 24.4372 13.7737 25.9683 12.3473 27.2345C11.6887 27.8198 11.6303 28.5059 12.2557 29.1213C12.6397 29.4997 13.1126 29.8175 13.6033 30.0445C16.9722 31.5933 20.5293 32.3602 24.2491 32.4333C25.3475 32.3425 26.4535 32.2895 27.5443 32.1457C34.0355 31.2831 39.4157 28.3722 43.6847 23.461C44.1779 22.8909 44.572 22.2048 44.8746 21.5086C45.284 20.5702 44.9407 20.0254 44.033 19.5688H44.0381ZM18.2054 28.0493C18.8182 26.3845 19.4487 24.7272 20.0361 23.0549C20.1378 22.7723 20.1327 22.4116 20.0615 22.114C19.8708 21.3068 19.6776 20.4895 19.375 19.7177C19.0953 19.0114 19.3953 18.6229 19.9674 18.1966C20.331 19.2737 20.6971 20.2978 21.015 21.3371C21.137 21.7457 21.3302 21.8718 21.7599 21.8567C23.5703 21.7987 25.3831 21.7861 27.1934 21.7331C27.4197 21.728 27.674 21.6398 27.8545 21.5086C28.9961 20.6812 30.1149 19.8186 31.2489 18.9887C31.5565 18.7717 31.587 18.5573 31.498 18.2092C31.198 17.0086 30.9361 15.7978 30.6463 14.5391C31.2794 14.5164 31.643 14.6576 31.7701 15.3059C31.9684 16.3149 32.2507 17.3062 32.5456 18.29C32.6168 18.5245 32.8507 18.7642 33.0744 18.8953C35.2051 20.1414 37.3485 21.3623 39.4894 22.5907C39.6775 22.6992 39.8632 22.8127 40.0539 22.9237C39.5097 23.7132 39.4767 23.7208 38.7241 23.2693C36.8731 22.1594 35.0221 21.0495 33.1685 19.9371C32.9448 19.8009 32.7134 19.6748 32.4693 19.536C31.3379 20.5274 30.2217 21.4884 29.1411 22.4873C28.9961 22.621 28.9631 22.9666 29.0114 23.1835C29.4004 24.9543 29.8174 26.7225 30.2471 28.5588C29.8276 28.6723 29.4335 28.7808 28.9605 28.9094C28.7292 27.6936 28.5054 26.5409 28.2893 25.3856C28.1596 24.697 28.0045 24.0134 27.9232 23.3172C27.8723 22.8707 27.7045 22.737 27.2595 22.7471C25.3831 22.7723 23.5016 22.7749 21.6252 22.7622C21.2463 22.7622 21.0861 22.8833 20.9743 23.2365C20.4174 24.987 19.8326 26.7301 19.2555 28.4781C19.1995 28.637 19.1334 28.7985 19.0597 28.9801C18.7139 28.9019 18.3961 28.8313 17.9944 28.7404C18.0732 28.4857 18.1317 28.2662 18.213 28.0518L18.2054 28.0493ZM42.6219 22.732C36.8527 29.0986 29.6674 31.8355 21.0785 30.8669C18.7368 30.6045 16.5019 29.9285 14.3559 28.9776C13.9593 28.8035 13.5931 28.5614 13.2117 28.352C13.2219 28.2738 13.2321 28.2006 13.2448 28.125C13.4711 28.125 13.7126 28.0695 13.9211 28.1325C15.4594 28.6017 16.9595 29.255 18.5258 29.5552C28.2664 31.4294 36.3798 28.5941 42.8202 21.0974C43.0897 20.7847 43.3058 20.5072 43.8067 20.9839C43.4279 21.554 43.0973 22.2073 42.6219 22.732Z" fill="#1C544E"/>
<path d="M40.0536 22.9261C39.5095 23.7156 39.4765 23.7232 38.7239 23.2717C36.8729 22.1618 35.0219 21.0519 33.1683 19.9395C32.9446 19.8033 32.7132 19.6772 32.4691 19.5384C31.3376 20.5298 30.2214 21.4908 29.1409 22.4897C28.9959 22.6234 28.9629 22.969 29.0112 23.1859C29.4002 24.9567 29.8172 26.7249 30.2469 28.5612C29.8273 28.6747 29.4332 28.7832 28.9603 28.9119C28.7289 27.696 28.5052 26.5433 28.2891 25.388C28.1594 24.6994 28.0043 24.0158 27.9229 23.3196C27.8721 22.8731 27.7043 22.7394 27.2593 22.7495C25.3829 22.7747 23.5014 22.7773 21.625 22.7647C21.2461 22.7647 21.0859 22.8857 20.9741 23.2389C20.4172 24.9895 19.8324 26.7325 19.2553 28.4805C19.1993 28.6394 19.1332 28.8009 19.0595 28.9825C18.7137 28.9043 18.3959 28.8337 17.9941 28.7428C18.073 28.4881 18.1314 28.2686 18.2128 28.0542C18.8256 26.3894 19.4561 24.7322 20.0435 23.0598C20.1452 22.7773 20.1401 22.4166 20.0689 22.1189C19.8782 21.3117 19.685 20.4945 19.3824 19.7226C19.1027 19.0163 19.4027 18.6278 19.9748 18.2015C20.3384 19.2786 20.7045 20.3027 21.0224 21.342C21.1444 21.7506 21.3376 21.8768 21.7673 21.8616C23.5777 21.8036 25.3905 21.791 27.2009 21.738C27.4271 21.733 27.6814 21.6447 27.8619 21.5135C29.0036 20.6862 30.1223 19.8235 31.2563 18.9936C31.5639 18.7767 31.5944 18.5623 31.5055 18.2142C31.2054 17.0135 30.9435 15.8027 30.6537 14.544C31.2868 14.5213 31.6504 14.6626 31.7775 15.3108C31.9758 16.3198 32.2581 17.3111 32.553 18.2949C32.6242 18.5295 32.8581 18.7691 33.0819 18.9003C35.2126 20.1464 37.356 21.3672 39.4968 22.5956C39.685 22.7041 39.8706 22.8176 40.0613 22.9286L40.0536 22.9261Z" fill="#EBECE9"/>
<path d="M43.8079 20.9865C43.429 21.5566 43.0985 22.2099 42.623 22.7346C36.8539 29.1012 29.6685 31.8381 21.0797 30.8695C18.7379 30.6071 16.503 29.9311 14.3571 28.9801C13.9604 28.8061 13.5943 28.5639 13.2129 28.3546C13.2231 28.2764 13.2332 28.2032 13.2459 28.1276C13.4722 28.1276 13.7138 28.0721 13.9223 28.1351C15.4605 28.6043 16.9607 29.2576 18.5269 29.5578C28.2676 31.432 36.381 28.5967 42.8213 21.1C43.0908 20.7872 43.307 20.5098 43.8079 20.9865Z" fill="#EBECE9"/>
<path d="M51.2213 17.957C49.3017 17.7274 47.8117 18.6002 46.4438 19.7908C46.065 20.1212 45.8743 20.4718 45.7929 20.9965C45.681 21.7104 45.4624 22.4847 45.0479 23.0624C44.3284 24.0714 43.4359 24.9643 42.5816 25.8749C42.1977 26.2835 41.7324 26.614 41.1934 27.0781C45.2132 28.1779 48.7855 27.6583 52.0299 25.2847C52.9096 24.6414 53.6139 23.8292 54.0512 22.8127C55.0149 20.5727 53.6597 18.2521 51.2213 17.9595V17.957ZM49.9602 21.728C49.3703 21.7154 48.8516 21.2008 48.8593 20.6358C48.8643 20.0455 49.4415 19.5032 50.0314 19.536C50.6238 19.5713 51.0942 20.0783 51.0789 20.6736C51.0637 21.2689 50.5603 21.7431 49.9602 21.728Z" fill="#F2FBF9"/>
<path d="M35.2721 31.1141C36.7697 30.1581 38.2138 29.2374 39.7674 28.2461C40.1157 28.801 40.5174 29.3862 40.8607 30.0042C41.8167 31.7145 42.3684 33.5331 42.3201 35.5133C42.3074 36.0152 42.1879 36.2977 41.626 36.2851C40.2403 36.2549 38.847 36.3104 37.4663 36.2019C36.2561 36.106 35.9103 35.6217 35.9637 34.4362C36.0145 33.2809 35.8365 32.1735 35.2695 31.1141H35.2721Z" fill="#F2FBF9"/>
<path d="M17.8984 32.5569C19.5282 32.7562 21.0309 32.9378 22.5335 33.1219C22.7293 33.1446 22.9276 33.1749 23.1234 33.185C23.9193 33.2304 24.354 33.5709 24.3998 34.3579C24.4913 35.9773 24.0413 36.4869 22.6403 36.502C21.4987 36.5146 20.352 36.4339 19.2155 36.333C18.4095 36.2624 17.8857 35.72 17.8221 34.8347C17.7687 34.088 17.8679 33.3288 17.9009 32.5569H17.8984Z" fill="#F2FBF9"/>
<path d="M16.8 32.3702C14.1379 32.8974 11.5648 33.1976 8.95868 32.7612C8.68916 32.7158 8.44762 32.4963 8.19336 32.3576C8.3688 32.1482 8.50356 31.8582 8.72985 31.7396C9.72145 31.22 10.7359 30.7458 11.7504 30.2741C11.8623 30.2236 12.0708 30.2413 12.1649 30.3144C13.4489 31.3032 14.9338 31.8279 16.4822 32.2189C16.561 32.239 16.6297 32.2895 16.8 32.3727V32.3702Z" fill="#F2FBF9"/>
</g>
<path d="M67.8457 9.4738H80.0603C86.3939 9.4738 90.1366 11.9206 90.1366 17.2656C90.1366 17.3514 90.1366 17.4397 90.134 17.5254C90.1264 17.8483 90.101 18.1687 90.0603 18.489C90.0196 18.7917 89.9637 19.0919 89.8899 19.3895C89.8162 19.6872 89.7323 19.9495 89.6281 20.2194C89.5238 20.4893 89.4094 20.7315 89.2746 20.9761C89.1399 21.2208 88.9975 21.4378 88.8348 21.6522C88.672 21.8666 88.4991 22.0608 88.3084 22.2424C88.1178 22.424 87.9144 22.5905 87.6982 22.7419C87.4821 22.8932 87.2482 23.0269 87.0092 23.1429C86.7702 23.259 86.5032 23.3624 86.2413 23.4431C85.9566 23.5289 85.6667 23.5944 85.3743 23.6348C85.0845 23.6752 84.7819 23.66 84.4997 23.7357C84.3954 23.7634 84.2861 23.8517 84.3522 23.9678C84.4056 24.0636 84.5098 24.0914 84.6115 24.104C85.115 24.162 85.6159 24.2124 86.1091 24.326C86.3557 24.3814 86.5973 24.4496 86.8363 24.5278C87.0804 24.6085 87.3194 24.6993 87.5558 24.8027C87.7923 24.9061 88.0262 25.0247 88.2525 25.1533C88.4788 25.282 88.7 25.4257 88.911 25.5821C89.1221 25.7385 89.328 25.91 89.5187 26.0917C89.712 26.2783 89.895 26.4751 90.0603 26.687C90.2256 26.8988 90.3857 27.1309 90.5205 27.368C90.6553 27.6051 90.7849 27.875 90.8866 28.1399C90.9934 28.4224 91.0799 28.71 91.1434 29.0051C91.2121 29.3229 91.2553 29.6433 91.2757 29.9661C91.2858 30.1251 91.2909 30.284 91.2909 30.4404C91.2909 36.8045 85.6159 38.4365 80.846 38.4365H67.8508V9.46875L67.8457 9.4738ZM80.3069 22.366C83.597 22.366 86.2693 21.183 86.2693 17.2656C86.2693 14.6549 84.4183 12.7782 80.3069 12.7782H71.7537V22.366H80.3069ZM80.3069 35.1372C84.3369 35.1372 87.1745 33.7902 87.1745 30.4454C87.1745 26.856 84.9116 25.6704 80.3069 25.6704H71.7537V35.1372H80.3069Z" fill="#F2FBF9"/>
<path d="M93.1367 27.7918C93.1367 21.3444 97.6193 16.8167 103.335 16.8167C109.051 16.8167 113.411 21.3444 113.411 27.7918C113.411 34.7285 108.929 38.8477 103.335 38.8477C97.7413 38.8477 93.1367 34.726 93.1367 27.7918ZM109.709 27.7918C109.709 23.4658 106.953 20.1614 103.335 20.1614C99.7169 20.1614 96.8362 23.4255 96.8362 27.7918C96.8362 32.4028 99.5923 35.5029 103.335 35.5029C107.078 35.5029 109.709 32.4028 109.709 27.7918Z" fill="#F2FBF9"/>
<path d="M116.165 17.2254H119.867C119.926 17.3793 119.9 17.6239 119.908 17.7879C119.918 17.9922 119.928 18.1965 119.938 18.4009C119.954 18.6708 119.951 18.9432 119.992 19.2106C120.02 19.3871 120.078 19.8008 120.292 19.8538C120.584 19.9269 120.732 19.3493 120.836 19.1702C121.337 18.3201 122.125 17.6567 123.005 17.2203C124.302 16.5771 125.794 16.4106 127.225 16.4106C132.819 16.4106 134.874 19.5536 134.874 26.9772V38.4417H131.172V28.4452C131.172 21.6725 130.06 19.7554 126.361 19.7554C123.935 19.7554 119.862 21.7557 119.862 27.4262V38.4417H116.16V17.2254H116.165Z" fill="#F2FBF9"/>
<path d="M137.754 27.7919C137.754 21.7531 141.456 16.8167 147.253 16.8167C150.566 16.8167 152.325 18.1284 153.879 20.5373C153.937 20.6281 154.08 20.5928 154.08 20.4844V9.47388H157.782V36.3606C157.782 37.1779 157.823 37.7883 157.947 38.1162V38.4416H154.123C153.999 38.197 153.917 37.4629 153.917 36.7693C153.917 36.0857 154.09 35.4324 154.26 34.7765C154.301 34.6151 154.199 34.4965 154.047 34.6126C153.927 34.7059 153.879 34.827 153.823 34.9607C153.327 36.1185 152.313 37.0644 151.23 37.6849C150.03 38.3735 148.639 38.7267 147.256 38.7267C141.456 38.7267 137.756 33.8306 137.756 27.7919H137.754ZM154.492 27.8322C154.492 23.5895 151.736 19.9572 147.83 19.9572C143.594 19.9572 141.537 23.2616 141.537 27.8322C141.537 32.4029 143.594 35.7073 147.83 35.7073C151.738 35.7073 154.492 32.075 154.492 27.8322Z" fill="#F2FBF9"/>
<path d="M167.117 9.22925V14.534H162.51V9.22925H167.117ZM166.664 17.2254V38.4417H162.962V17.2254H166.664Z" fill="#F2FBF9"/>
</g>
<defs>
<clipPath id="clip0_1165_589">
<rect width="170" height="47.7409" fill="white"/>
</clipPath>
</defs>
</svg>
