<svg width="347" height="88" viewBox="0 0 347 88" fill="none" xmlns="http://www.w3.org/2000/svg">
<path d="M139.32 13.6297H164.874C178.124 13.6297 185.954 18.7485 185.954 29.9307C185.954 30.1101 185.954 30.2948 185.949 30.4742C185.933 31.1497 185.88 31.8199 185.794 32.4901C185.709 33.1234 185.592 33.7513 185.438 34.374C185.284 34.9967 185.108 35.5455 184.89 36.1102C184.672 36.6749 184.433 37.1815 184.151 37.6933C183.869 38.2052 183.571 38.6591 183.231 39.1076C182.89 39.5562 182.528 39.9625 182.129 40.3424C181.73 40.7224 181.305 41.0707 180.853 41.3873C180.401 41.7039 179.911 41.9836 179.411 42.2264C178.911 42.4691 178.353 42.6855 177.805 42.8544C177.209 43.0338 176.603 43.171 175.991 43.2554C175.385 43.3399 174.752 43.3082 174.161 43.4665C173.943 43.5245 173.714 43.7092 173.853 43.952C173.964 44.1525 174.182 44.2106 174.395 44.237C175.448 44.3583 176.496 44.4639 177.528 44.7013C178.044 44.8174 178.55 44.9599 179.05 45.1235C179.56 45.2924 180.06 45.4824 180.555 45.6987C181.05 45.9151 181.539 46.1631 182.012 46.4322C182.486 46.7014 182.949 47.0022 183.39 47.3294C183.832 47.6565 184.262 48.0154 184.661 48.3953C185.066 48.7858 185.449 49.1974 185.794 49.6407C186.14 50.084 186.475 50.5695 186.757 51.0655C187.039 51.5616 187.31 52.1262 187.523 52.6803C187.747 53.2714 187.927 53.873 188.06 54.4904C188.204 55.1553 188.294 55.8255 188.337 56.501C188.358 56.8334 188.369 57.1659 188.369 57.4931C188.369 70.8072 176.496 74.2215 166.517 74.2215H139.331V13.6191L139.32 13.6297ZM165.39 40.601C172.273 40.601 177.863 38.1261 177.863 29.9307C177.863 24.4689 173.991 20.5427 165.39 20.5427H147.496V40.601H165.39ZM165.39 67.3191C173.821 67.3191 179.757 64.5011 179.757 57.5036C179.757 49.9943 175.023 47.514 165.39 47.514H147.496V67.3191H165.39Z" fill="#1C544E"/>
<path d="M192.23 51.9519C192.23 38.4636 201.608 28.9912 213.566 28.9912C225.524 28.9912 234.646 38.4636 234.646 51.9519C234.646 66.464 225.268 75.0815 213.566 75.0815C201.864 75.0815 192.23 66.4587 192.23 51.9519ZM226.901 51.9519C226.901 42.9017 221.135 35.9887 213.566 35.9887C205.997 35.9887 199.97 42.8172 199.97 51.9519C199.97 61.5985 205.736 68.0841 213.566 68.0841C221.396 68.0841 226.901 61.5985 226.901 51.9519Z" fill="#1C544E"/>
<path d="M240.407 29.8461H248.152C248.274 30.168 248.221 30.6799 248.237 31.0229C248.258 31.4503 248.28 31.8778 248.301 32.3052C248.333 32.8699 248.327 33.4398 248.413 33.9992C248.471 34.3686 248.593 35.234 249.04 35.3449C249.652 35.4979 249.96 34.2894 250.179 33.9148C251.226 32.1364 252.875 30.7485 254.716 29.8356C257.429 28.4899 260.551 28.1416 263.546 28.1416C275.248 28.1416 279.546 34.7169 279.546 50.2474V74.2319H271.801V53.3187C271.801 39.1497 269.477 35.1391 261.737 35.1391C256.663 35.1391 248.141 39.3238 248.141 51.1868V74.2319H240.396V29.8461H240.407Z" fill="#1C544E"/>
<path d="M285.573 51.9523C285.573 39.3189 293.318 28.9916 305.446 28.9916C312.377 28.9916 316.058 31.7357 319.308 36.7753C319.43 36.9653 319.728 36.8914 319.728 36.6645V13.6299H327.473V69.8787C327.473 71.5884 327.558 72.8655 327.819 73.5515V74.2323H319.819C319.558 73.7204 319.388 72.1847 319.388 70.7335C319.388 69.3034 319.749 67.9367 320.106 66.5646C320.191 66.2269 319.978 65.9789 319.659 66.2216C319.409 66.4169 319.308 66.6702 319.191 66.9499C318.154 69.372 316.031 71.351 313.765 72.6491C311.255 74.0898 308.345 74.8286 305.451 74.8286C293.318 74.8286 285.579 64.5857 285.579 51.9523H285.573ZM320.59 52.0367C320.59 43.1606 314.824 35.5616 306.653 35.5616C297.792 35.5616 293.488 42.4746 293.488 52.0367C293.488 61.5989 297.792 68.5119 306.653 68.5119C314.829 68.5119 320.59 60.9128 320.59 52.0367Z" fill="#1C544E"/>
<path d="M347 13.1182V24.2159H337.361V13.1182H347ZM346.053 29.8466V74.2324H338.308V29.8466H346.053Z" fill="#1C544E"/>
<mask id="mask0_155_8144" style="mask-type:luminance" maskUnits="userSpaceOnUse" x="0" y="0" width="120" height="88">
<path d="M109.353 0H9.76004C4.36972 0 0 4.3351 0 9.68271V78.3173C0 83.6649 4.36972 88 9.76004 88H109.353C114.744 88 119.113 83.6649 119.113 78.3173V9.68271C119.113 4.3351 114.744 0 109.353 0Z" fill="white"/>
</mask>
<g mask="url(#mask0_155_8144)">
<path d="M109.6 -0.379883H10.0071C4.61679 -0.379883 0.24707 3.95521 0.24707 9.30283V77.9374C0.24707 83.285 4.61679 87.6201 10.0071 87.6201H109.6C114.991 87.6201 119.36 83.285 119.36 77.9374V9.30283C119.36 3.95521 114.991 -0.379883 109.6 -0.379883Z" fill="#1C544E"/>
<path d="M78.2482 116.266C116.384 116.266 147.299 85.5958 147.299 47.762C147.299 9.92817 116.384 -20.7422 78.2482 -20.7422C40.1123 -20.7422 9.19702 9.92817 9.19702 47.762C9.19702 85.5958 40.1123 116.266 78.2482 116.266Z" fill="#256D63"/>
<path d="M117.883 126.439C162.063 126.439 197.877 90.9081 197.877 47.0785C197.877 3.24876 162.063 -32.2822 117.883 -32.2822C73.7031 -32.2822 37.8884 3.24876 37.8884 47.0785C37.8884 90.9081 73.7031 126.439 117.883 126.439Z" fill="#2D7F71"/>
<path d="M149.414 126.439C193.594 126.439 229.408 90.9081 229.408 47.0785C229.408 3.24876 193.594 -32.2822 149.414 -32.2822C105.234 -32.2822 69.4194 3.24876 69.4194 47.0785C69.4194 90.9081 105.234 126.439 149.414 126.439Z" fill="#3A9B88"/>
<path d="M29.2067 59.8502C26.0042 59.0415 22.9332 57.9512 20.2828 55.9113C20.083 55.76 19.6518 55.7183 19.4257 55.8279C17.3222 56.8034 15.224 57.7842 13.1732 58.8537C12.7104 59.0989 12.4317 59.6989 12.0688 60.1371C12.5895 60.4188 13.0943 60.8779 13.6517 60.9718C19.0418 61.8796 24.3583 61.2535 29.8641 60.1632C29.517 59.9962 29.375 59.8867 29.212 59.8449L29.2067 59.8502ZM45.5822 64.2794C45.4875 62.6465 44.5935 61.9422 42.9423 61.8535C42.5374 61.8326 42.1272 61.77 41.7223 61.7231C38.6145 61.3474 35.5066 60.9666 32.1358 60.5545C32.0675 62.1509 31.8676 63.7212 31.9781 65.2706C32.1095 67.0965 33.1928 68.2234 34.8598 68.3695C37.2157 68.573 39.582 68.7399 41.9432 68.7138C44.8407 68.6877 45.7715 67.6339 45.5822 64.2846V64.2794ZM79.6318 55.2697C78.9219 53.9967 78.0858 52.7864 77.3706 51.6334C74.1523 53.6837 71.1654 55.5879 68.0681 57.5651C69.2408 59.7563 69.6089 62.0465 69.5037 64.4411C69.3933 66.8983 70.1084 67.8947 72.6116 68.093C75.467 68.3173 78.3487 68.2025 81.2147 68.2599C82.3768 68.286 82.6293 67.7017 82.6503 66.6688C82.7502 62.5734 81.6091 58.812 79.6318 55.2697ZM101.061 30.3586C97.0905 29.8838 94.009 31.6889 91.1798 34.1513C90.3963 34.8348 90.0019 35.5599 89.8336 36.645C89.6022 38.1214 89.15 39.7231 88.2928 40.9178C86.8046 43.0045 84.9588 44.8513 83.1919 46.7347C82.3979 47.5798 81.4356 48.2633 80.3207 49.2232C88.6346 51.4978 96.023 50.4231 102.733 45.5139C104.553 44.1836 106.009 42.5037 106.914 40.4013C108.907 35.7686 106.104 30.969 101.061 30.3638V30.3586ZM98.4525 38.158C97.2325 38.1319 96.1597 37.0676 96.1755 35.899C96.186 34.6782 97.3797 33.5566 98.5997 33.6244C99.825 33.6974 100.798 34.7461 100.766 35.9773C100.735 37.2085 99.6935 38.1893 98.4525 38.158ZM86.2051 33.6922C82.4715 31.8141 78.7905 29.8369 75.1199 27.8388C72.4801 26.4093 69.9507 24.7555 67.2583 23.4252C56.9093 18.2969 46.9915 19.4707 37.6995 25.9607C32.6617 29.4769 29.6274 34.6261 27.2716 40.1613C25.7361 43.7558 23.6168 46.9277 20.6667 49.5466C19.3047 50.757 19.189 52.1708 20.4774 53.4489C21.2715 54.2315 22.2496 54.8888 23.2645 55.3583C30.2322 58.5668 37.5838 60.1475 45.2824 60.304C47.5541 60.111 49.8416 60.0119 52.0976 59.7093C65.5229 57.9251 76.6502 51.8995 85.4794 41.7472C86.5049 40.5682 87.3147 39.144 87.9458 37.7093C88.7924 35.7686 88.0825 34.6365 86.2051 33.6922ZM32.7774 51.2317C34.0447 47.7885 35.3436 44.361 36.5636 40.9021C36.7739 40.3126 36.7634 39.5718 36.6162 38.9562C36.2218 37.2867 35.8169 35.5964 35.1911 34C34.6126 32.5393 35.2332 31.7359 36.4163 30.8594C37.1683 33.0871 37.9308 35.1999 38.5829 37.3546C38.8353 38.1997 39.235 38.4553 40.1237 38.4292C43.8678 38.3093 47.612 38.2832 51.3614 38.1736C51.8294 38.1632 52.3553 37.9806 52.7286 37.7093C55.0898 35.9981 57.3983 34.2139 59.7542 32.4975C60.3852 32.0437 60.4536 31.6002 60.2695 30.8803C59.649 28.397 59.1021 25.8928 58.5026 23.2896C59.8173 23.2478 60.564 23.5348 60.8269 24.8755C61.2371 26.9623 61.8208 29.0126 62.4308 31.0472C62.5781 31.5324 63.0619 32.028 63.5246 32.2941C67.9314 34.8713 72.3644 37.3963 76.7922 39.937C77.1813 40.1613 77.5652 40.396 77.9596 40.6256C76.8395 42.2585 76.7659 42.2742 75.2093 41.3403C71.381 39.0449 67.5527 36.7442 63.7192 34.4487C63.2564 34.1722 62.7779 33.9061 62.2731 33.6192C59.9382 35.6695 57.6244 37.6571 55.3895 39.7231C55.095 39.9943 55.0214 40.7091 55.1213 41.1577C55.9259 44.8253 56.7883 48.4824 57.6718 52.2751C56.8041 52.5099 55.989 52.7342 55.0109 53.0003C54.5324 50.4857 54.0696 48.1015 53.6174 45.7121C53.3492 44.2879 53.0284 42.8689 52.8601 41.4342C52.7549 40.5108 52.4026 40.2343 51.4876 40.25C47.6067 40.3021 43.7153 40.3126 39.8345 40.2813C39.0509 40.2761 38.7249 40.5317 38.4883 41.2621C37.3366 44.8826 36.1271 48.4928 34.9334 52.1029C34.823 52.4368 34.681 52.7655 34.5338 53.1411C33.8186 52.9846 33.1612 52.8333 32.3304 52.6455C32.4934 52.1238 32.6143 51.6647 32.7826 51.2213L32.7774 51.2317ZM83.2761 40.2343C71.339 53.4072 56.4886 59.0624 38.7144 57.0591C33.8712 56.5113 29.2541 55.1184 24.8105 53.1516C23.9902 52.7916 23.2329 52.2908 22.4441 51.8578C22.4652 51.7012 22.4862 51.5447 22.5178 51.3882C22.9858 51.3882 23.4854 51.2734 23.9166 51.4039C27.0928 52.3742 30.1954 53.7202 33.44 54.3462C53.5858 58.2225 70.3661 52.3534 83.6863 36.8537C84.2437 36.2068 84.6907 35.6329 85.7266 36.619C84.9378 37.798 84.2594 39.1492 83.2761 40.2291V40.2343Z" fill="#1C544E"/>
<path d="M86.1993 33.6922C82.4657 31.8141 78.7899 29.8317 75.1141 27.8388C72.4743 26.4093 69.9449 24.7555 67.2525 23.4252C56.9035 18.2969 46.9857 19.4707 37.6937 25.9607C32.6559 29.4769 29.6216 34.6261 27.2658 40.1613C25.7303 43.761 23.6058 46.9277 20.6557 49.5466C19.2937 50.757 19.1727 52.176 20.4664 53.4489C21.2604 54.2315 22.2385 54.8888 23.2534 55.3583C30.2211 58.5616 37.578 60.1475 45.2714 60.2988C47.5431 60.111 49.8306 60.0015 52.0866 59.7041C65.5119 57.9199 76.6391 51.8995 85.4684 41.742C86.4886 40.563 87.3037 39.144 87.9294 37.7041C88.7761 35.7634 88.0662 34.6365 86.1888 33.6922H86.1993ZM32.7716 51.2317C34.0389 47.7885 35.343 44.361 36.5578 40.9021C36.7681 40.3178 36.7576 39.5718 36.6104 38.9562C36.216 37.2867 35.8163 35.5964 35.1905 34C34.6121 32.5393 35.2326 31.7359 36.4158 30.8542C37.1678 33.0818 37.925 35.1999 38.5824 37.3493C38.8348 38.1945 39.2344 38.4553 40.1232 38.424C43.8673 38.304 47.6167 38.278 51.3609 38.1684C51.8289 38.158 52.3547 37.9754 52.7281 37.7041C55.0892 35.9929 57.403 34.2087 59.7484 32.4923C60.3847 32.0437 60.4478 31.6002 60.2637 30.8803C59.6432 28.397 59.1016 25.8928 58.5021 23.2896C59.8115 23.2426 60.5635 23.5348 60.8264 24.8755C61.2366 26.9623 61.8203 29.0126 62.4303 31.0472C62.5775 31.5324 63.0613 32.028 63.5241 32.2993C67.9308 34.8765 72.3639 37.4015 76.7916 39.9422C77.1808 40.1665 77.5647 40.4013 77.9591 40.6308C76.8337 42.2637 76.7653 42.2794 75.2088 41.3455C71.3805 39.0501 67.5522 36.7546 63.7187 34.4539C63.2559 34.1722 62.7774 33.9113 62.2725 33.6244C59.9324 35.6747 57.6239 37.6624 55.389 39.7283C55.0892 40.0048 55.0209 40.7195 55.1208 41.1682C55.9254 44.8305 56.7878 48.4876 57.6765 52.2855C56.8088 52.5203 55.9937 52.7446 55.0156 53.0107C54.5371 50.4961 54.0743 48.112 53.6273 45.7226C53.3591 44.2983 53.0384 42.8845 52.8701 41.4447C52.7649 40.5213 52.4178 40.2448 51.4976 40.2656C47.6167 40.3178 43.7253 40.323 39.8444 40.2969C39.0609 40.2969 38.7296 40.5473 38.4982 41.2777C37.3466 44.8983 36.1371 48.5032 34.9434 52.1186C34.8277 52.4473 34.691 52.7812 34.5385 53.1568C33.8233 52.995 33.166 52.849 32.3351 52.6612C32.4981 52.1342 32.6191 51.6804 32.7873 51.2369L32.7716 51.2317ZM83.2703 40.2343C71.3384 53.402 56.4775 59.0624 38.7138 57.0591C33.8706 56.5165 29.2483 55.1184 24.81 53.1516C23.9896 52.7916 23.2324 52.2908 22.4436 51.8578C22.4646 51.696 22.4857 51.5447 22.512 51.3882C22.98 51.3882 23.4796 51.2734 23.9108 51.4039C27.0922 52.3742 30.1948 53.7254 33.4342 54.3462C53.58 58.2225 70.3603 52.3586 83.6804 36.8537C84.2379 36.2068 84.6849 35.6329 85.7208 36.619C84.9373 37.798 84.2536 39.1492 83.2703 40.2343Z" fill="#1C544E"/>
<path d="M77.9594 40.6366C76.8341 42.2695 76.7657 42.2851 75.2091 41.3513C71.3808 39.0558 67.5526 36.7604 63.719 34.4597C63.2562 34.178 62.7777 33.9171 62.2729 33.6302C59.9328 35.6805 57.6242 37.6681 55.3893 39.734C55.0896 40.0105 55.0212 40.7253 55.1211 41.1739C55.9257 44.8362 56.7881 48.4933 57.6768 52.2913C56.8092 52.5261 55.9941 52.7504 55.016 53.0165C54.5374 50.5019 54.0747 48.1177 53.6277 45.7284C53.3595 44.3041 53.0387 42.8903 52.8704 41.4504C52.7653 40.527 52.4182 40.2505 51.4979 40.2714C47.6171 40.3236 43.7257 40.3288 39.8448 40.3027C39.0612 40.3027 38.73 40.5531 38.4986 41.2835C37.3469 44.9041 36.1374 48.509 34.9437 52.1244C34.828 52.453 34.6913 52.7869 34.5388 53.1626C33.8236 53.0008 33.1663 52.8547 32.3354 52.6669C32.4985 52.14 32.6194 51.6861 32.7877 51.2427C34.055 47.7995 35.3592 44.3719 36.5739 40.9131C36.7843 40.3288 36.7737 39.5828 36.6265 38.9671C36.2321 37.2977 35.8324 35.6074 35.2067 34.011C34.6282 32.5503 35.2487 31.7468 36.4319 30.8652C37.1839 33.0928 37.9412 35.2109 38.5985 37.3603C38.8509 38.2055 39.2506 38.4663 40.1393 38.435C43.8834 38.315 47.6328 38.2889 51.377 38.1794C51.845 38.169 52.3709 37.9864 52.7442 37.7151C55.1054 36.0039 57.4192 34.2197 59.7645 32.5033C60.4008 32.0547 60.4639 31.6112 60.2799 30.8913C59.6593 28.408 59.1177 25.9038 58.5182 23.3006C59.8276 23.2536 60.5796 23.5458 60.8425 24.8865C61.2527 26.9733 61.8364 29.0236 62.4464 31.0582C62.5937 31.5434 63.0775 32.039 63.5402 32.3103C67.947 34.8875 72.38 37.4125 76.8078 39.9532C77.1969 40.1775 77.5808 40.4123 77.9752 40.6418L77.9594 40.6366Z" fill="#EBECE9"/>
<path d="M85.7211 36.6238C84.9375 37.8029 84.2539 39.1541 83.2705 40.2392C71.3387 53.4068 56.4778 59.0673 38.7141 57.0639C33.8709 56.5214 29.2485 55.1232 24.8102 53.1564C23.9899 52.7965 23.2326 52.2956 22.4438 51.8626C22.4649 51.7009 22.4859 51.5496 22.5122 51.3931C22.9802 51.3931 23.4798 51.2783 23.911 51.4087C27.0925 52.3791 30.1951 53.7303 33.4344 54.3511C53.5803 58.2273 70.3606 52.3634 83.6807 36.8586C84.2381 36.2117 84.6851 35.6378 85.7211 36.6238Z" fill="#EBECE9"/>
<path d="M101.056 30.3583C97.0852 29.8836 94.0037 31.6886 91.1745 34.1511C90.391 34.8345 89.9966 35.5596 89.8283 36.6448C89.5969 38.1212 89.1447 39.7228 88.2875 40.9175C86.7993 43.0043 84.9535 44.8511 83.1866 46.7344C82.3926 47.5796 81.4303 48.263 80.3154 49.2229C88.6293 51.4975 96.0177 50.4228 102.728 45.5136C104.547 44.1833 106.004 42.5034 106.908 40.401C108.901 35.7683 106.099 30.9687 101.056 30.3635V30.3583ZM98.4472 38.1577C97.2272 38.1316 96.1544 37.0673 96.1702 35.8987C96.1807 34.678 97.3745 33.5563 98.5945 33.6241C99.8197 33.6972 100.793 34.7458 100.761 35.977C100.729 37.2082 99.6883 38.189 98.4472 38.1577Z" fill="#F2FBF9"/>
<path d="M68.068 57.5704C71.1653 55.5931 74.1522 53.6889 77.3653 51.6387C78.0857 52.7864 78.9166 53.9967 79.6265 55.2749C81.6037 58.812 82.7449 62.5735 82.6449 66.6688C82.6187 67.707 82.3715 68.2913 81.2093 68.2652C78.3434 68.2026 75.4616 68.3174 72.6062 68.093C70.1031 67.8948 69.3879 66.8931 69.4984 64.4411C69.6035 62.0518 69.2354 59.7615 68.0627 57.5704H68.068Z" fill="#F2FBF9"/>
<path d="M32.1351 60.5547C35.5059 60.9668 38.6137 61.3424 41.7216 61.7233C42.1265 61.7702 42.5367 61.8328 42.9416 61.8537C44.5876 61.9476 45.4868 62.6519 45.5814 64.2796C45.7708 67.6289 44.84 68.6827 41.9425 68.714C39.5813 68.7401 37.2097 68.5732 34.8591 68.3645C33.1921 68.2184 32.1088 67.0968 31.9773 65.2656C31.8669 63.7214 32.072 62.1511 32.1404 60.5547H32.1351Z" fill="#F2FBF9"/>
<path d="M29.8637 60.1681C24.3579 61.2585 19.0362 61.8793 13.6461 60.9767C13.0887 60.8828 12.5891 60.429 12.0632 60.142C12.4261 59.709 12.7048 59.1091 13.1728 58.8639C15.2237 57.7892 17.3219 56.8084 19.4201 55.8328C19.6514 55.7285 20.0827 55.765 20.2772 55.9163C22.9328 57.9613 26.0039 59.0465 29.2064 59.8551C29.3694 59.8968 29.5114 60.0012 29.8637 60.1733V60.1681Z" fill="#F2FBF9"/>
</g>
</svg>
