<svg width="200" height="200" viewBox="0 0 200 200" fill="none" xmlns="http://www.w3.org/2000/svg">
<g clip-path="url(#clip0_238_193)">
<path d="M200 0H0V200H200V0Z" fill="#1C544E"/>
<path d="M52.4267 124.081C47.49 122.834 42.7561 121.153 38.6706 118.009C38.3626 117.776 37.6979 117.712 37.3493 117.88C34.1069 119.384 30.8725 120.896 27.7111 122.545C26.9978 122.923 26.5682 123.848 26.0088 124.523C26.8114 124.957 27.5895 125.665 28.4488 125.81C36.7575 127.209 44.9528 126.244 53.4399 124.563C52.9049 124.306 52.6861 124.137 52.4348 124.073L52.4267 124.081ZM77.6691 130.908C77.5232 128.391 76.1452 127.306 73.5998 127.169C72.9757 127.137 72.3434 127.04 71.7192 126.968C66.9285 126.389 62.1378 125.802 56.9418 125.166C56.8364 127.627 56.5284 130.048 56.6986 132.436C56.9012 135.251 58.5711 136.988 61.1407 137.213C64.7723 137.527 68.42 137.784 72.0597 137.744C76.5262 137.704 77.9609 136.079 77.6691 130.916V130.908ZM130.156 117.02C129.062 115.058 127.773 113.192 126.67 111.415C121.709 114.575 117.105 117.51 112.331 120.558C114.138 123.936 114.706 127.466 114.544 131.158C114.373 134.945 115.476 136.481 119.334 136.787C123.736 137.133 128.178 136.956 132.596 137.044C134.387 137.084 134.776 136.184 134.809 134.591C134.963 128.279 133.204 122.48 130.156 117.02ZM163.188 78.6199C157.068 77.8881 152.318 80.6706 147.957 84.4663C146.749 85.5198 146.141 86.6376 145.882 88.3104C145.525 90.5862 144.828 93.0551 143.507 94.8967C141.213 98.1134 138.367 100.96 135.644 103.863C134.42 105.166 132.936 106.22 131.218 107.699C144.034 111.206 155.423 109.549 165.766 101.982C168.571 99.9309 170.816 97.3414 172.21 94.1005C175.283 86.9593 170.962 79.5608 163.188 78.6279V78.6199ZM159.168 90.6425C157.287 90.6023 155.633 88.9617 155.658 87.1604C155.674 85.2786 157.514 83.5495 159.395 83.6541C161.283 83.7667 162.783 85.3831 162.734 87.281C162.686 89.1789 161.081 90.6908 159.168 90.6425ZM140.289 83.7586C134.533 80.8636 128.859 77.8157 123.201 74.7356C119.132 72.5321 115.233 69.9829 111.082 67.9322C95.1297 60.027 79.8416 61.8364 65.5181 71.8405C57.7524 77.2608 53.0752 85.1981 49.4436 93.7306C47.0766 99.2715 43.8099 104.161 39.2623 108.198C37.1629 110.064 36.9845 112.243 38.9705 114.213C40.1946 115.42 41.7023 116.433 43.2668 117.157C54.0074 122.102 65.3397 124.539 77.2071 124.78C80.7089 124.483 84.2351 124.33 87.7126 123.864C108.407 121.113 125.56 111.825 139.17 96.1753C140.751 94.3579 141.999 92.1624 142.972 89.9509C144.277 86.9593 143.182 85.2142 140.289 83.7586ZM57.9307 110.796C59.8843 105.488 61.8865 100.204 63.7671 94.8726C64.0914 93.9638 64.0752 92.8219 63.8482 91.8729C63.2402 89.2995 62.6161 86.6939 61.6514 84.2331C60.7598 81.9814 61.7163 80.7429 63.5402 79.3919C64.6993 82.8258 65.8747 86.0828 66.8799 89.4041C67.269 90.7068 67.885 91.1009 69.255 91.0607C75.0265 90.8757 80.7981 90.8355 86.5777 90.6666C87.2992 90.6505 88.1098 90.3691 88.6853 89.9509C92.325 87.3132 95.8835 84.5628 99.5151 81.9171C100.488 81.2174 100.593 80.5338 100.309 79.4241C99.353 75.5961 98.5099 71.736 97.5858 67.7231C99.6124 67.6588 100.763 68.1011 101.168 70.1678C101.801 73.3846 102.701 76.5451 103.641 79.6814C103.868 80.4293 104.614 81.1933 105.327 81.6034C112.12 85.5761 118.953 89.4684 125.779 93.3848C126.378 93.7306 126.97 94.0925 127.578 94.4463C125.852 96.9634 125.738 96.9876 123.339 95.5481C117.437 92.0096 111.536 88.4631 105.627 84.9247C104.913 84.4985 104.176 84.0884 103.398 83.6461C99.7988 86.8065 96.2321 89.8705 92.787 93.0551C92.3331 93.4733 92.2196 94.575 92.3736 95.2666C93.6138 100.92 94.9432 106.557 96.3051 112.404C94.9676 112.766 93.7111 113.112 92.2034 113.522C91.4657 109.646 90.7524 105.97 90.0553 102.287C89.6418 100.092 89.1474 97.9043 88.888 95.6928C88.7258 94.2694 88.1827 93.8432 86.7723 93.8673C80.79 93.9477 74.7914 93.9638 68.8091 93.9156C67.6013 93.9075 67.0987 94.3016 66.734 95.4274C64.9587 101.009 63.0943 106.574 61.2542 112.138C61.084 112.653 60.8651 113.16 60.6382 113.739C59.5357 113.498 58.5225 113.264 57.2417 112.975C57.493 112.171 57.6794 111.463 57.9388 110.779L57.9307 110.796ZM135.773 93.8432C117.373 114.149 94.4812 122.866 67.0825 119.778C59.6168 118.934 52.4996 116.787 45.65 113.755C44.3854 113.2 43.2181 112.428 42.0022 111.761C42.0346 111.519 42.0671 111.278 42.1157 111.037C42.8371 111.037 43.6072 110.86 44.2719 111.061C49.168 112.557 53.9506 114.631 58.9521 115.597C90.0066 121.572 115.873 112.525 136.406 88.632C137.265 87.6348 137.954 86.7502 139.551 88.2701C138.335 90.0876 137.289 92.1705 135.773 93.8351V93.8432Z" fill="#1C544E"/>
<path d="M140.279 83.7586C134.524 80.8636 128.858 77.8076 123.192 74.7356C119.122 72.5321 115.223 69.9829 111.073 67.9322C95.1203 60.027 79.8321 61.8364 65.5086 71.8405C57.743 77.2608 53.0658 85.1981 49.4342 93.7306C47.0672 99.2795 43.7924 104.161 39.2448 108.198C37.1453 110.064 36.9589 112.251 38.953 114.213C40.177 115.42 41.6848 116.433 43.2493 117.157C53.9899 122.094 65.3303 124.539 77.1896 124.772C80.6914 124.483 84.2176 124.314 87.6951 123.856C108.39 121.105 125.543 111.825 139.153 96.1673C140.725 94.3498 141.982 92.1624 142.946 89.9429C144.251 86.9513 143.157 85.2142 140.263 83.7586H140.279ZM57.9213 110.795C59.8749 105.488 61.8852 100.204 63.7577 94.8725C64.082 93.9718 64.0658 92.8218 63.8388 91.8729C63.2308 89.2995 62.6148 86.6939 61.6501 84.2331C60.7585 81.9814 61.715 80.7429 63.5389 79.3838C64.698 82.8177 65.8653 86.0827 66.8786 89.396C67.2677 90.6988 67.8837 91.1009 69.2537 91.0526C75.0252 90.8677 80.8049 90.8275 86.5764 90.6586C87.2979 90.6425 88.1085 90.361 88.684 89.9429C92.3237 87.3051 95.8904 84.5548 99.5057 81.909C100.487 81.2174 100.584 80.5338 100.3 79.4241C99.3436 75.5961 98.5086 71.736 97.5845 67.7231C99.603 67.6507 100.762 68.1011 101.167 70.1678C101.8 73.3846 102.7 76.545 103.64 79.6814C103.867 80.4293 104.613 81.1933 105.326 81.6114C112.119 85.5841 118.952 89.4764 125.778 93.3928C126.377 93.7386 126.969 94.1005 127.577 94.4544C125.842 96.9715 125.737 96.9956 123.338 95.5561C117.436 92.0177 111.535 88.4792 105.626 84.9328C104.912 84.4985 104.175 84.0964 103.397 83.6541C99.7894 86.8146 96.2308 89.8785 92.7857 93.0631C92.3237 93.4893 92.2183 94.5911 92.3723 95.2827C93.6125 100.928 94.9419 106.565 96.3119 112.42C94.9744 112.782 93.7179 113.128 92.2102 113.538C91.4725 109.662 90.7592 105.986 90.0702 102.303C89.6568 100.108 89.1623 97.9285 88.9029 95.7089C88.7408 94.2855 88.2058 93.8593 86.7872 93.8914C80.8049 93.9718 74.8063 93.9799 68.824 93.9397C67.6162 93.9397 67.1055 94.3257 66.7489 95.4515C64.9736 101.033 63.1092 106.59 61.2691 112.163C61.0908 112.669 60.88 113.184 60.645 113.763C59.5425 113.514 58.5293 113.288 57.2485 112.999C57.4998 112.187 57.6862 111.487 57.9456 110.804L57.9213 110.795ZM135.764 93.8432C117.372 114.141 94.4637 122.866 67.0812 119.778C59.6155 118.942 52.4902 116.787 45.6487 113.755C44.3841 113.2 43.2168 112.428 42.0009 111.761C42.0333 111.511 42.0658 111.278 42.1063 111.037C42.8277 111.037 43.5978 110.86 44.2625 111.061C49.1667 112.557 53.9493 114.64 58.9427 115.596C89.9972 121.572 115.864 112.533 136.397 88.632C137.256 87.6348 137.945 86.7502 139.542 88.2701C138.334 90.0876 137.28 92.1705 135.764 93.8432Z" fill="#F2FBF9"/>
<path d="M127.578 94.4626C125.843 96.9797 125.738 97.0038 123.339 95.5643C117.437 92.0259 111.536 88.4875 105.627 84.941C104.913 84.5067 104.176 84.1046 103.398 83.6623C99.7899 86.8228 96.2313 89.8868 92.7862 93.0713C92.3242 93.4976 92.2188 94.5993 92.3728 95.2909C93.613 100.936 94.9424 106.574 96.3124 112.428C94.9749 112.79 93.7184 113.136 92.2107 113.546C91.473 109.67 90.7597 105.995 90.0707 102.311C89.6573 100.116 89.1628 97.9367 88.9034 95.7171C88.7413 94.2937 88.2063 93.8675 86.7877 93.8997C80.8054 93.9801 74.8069 93.9881 68.8245 93.9479C67.6167 93.9479 67.106 94.3339 66.7494 95.4598C64.9741 101.041 63.1097 106.598 61.2696 112.171C61.0913 112.677 60.8806 113.192 60.6455 113.771C59.543 113.522 58.5298 113.297 57.249 113.007C57.5003 112.195 57.6867 111.495 57.9461 110.812C59.8997 105.504 61.91 100.221 63.7826 94.8888C64.1068 93.9881 64.0906 92.8381 63.8636 91.8892C63.2556 89.3158 62.6396 86.7102 61.675 84.2494C60.7833 81.9976 61.7398 80.7592 63.5637 79.4001C64.7229 82.834 65.8901 86.099 66.9034 89.4123C67.2925 90.7151 67.9086 91.1172 69.2785 91.0689C75.05 90.8839 80.8297 90.8437 86.6013 90.6749C87.3227 90.6588 88.1333 90.3773 88.7089 89.9591C92.3485 87.3214 95.9152 84.5711 99.5305 81.9253C100.512 81.2337 100.609 80.5501 100.325 79.4403C99.3684 75.6124 98.5335 71.7523 97.6094 67.7394C99.6278 67.667 100.787 68.1173 101.193 70.1841C101.825 73.4009 102.725 76.5613 103.665 79.6977C103.892 80.4456 104.638 81.2095 105.351 81.6277C112.144 85.6004 118.978 89.4927 125.803 93.4091C126.403 93.7549 126.995 94.1168 127.602 94.4706L127.578 94.4626Z" fill="#1C544E"/>
<path d="M139.542 88.2783C138.334 90.0957 137.28 92.1786 135.764 93.8513C117.372 114.149 94.4638 122.875 67.0813 119.786C59.6156 118.95 52.4903 116.795 45.6487 113.763C44.3842 113.208 43.2169 112.436 42.001 111.769C42.0334 111.519 42.0658 111.286 42.1064 111.045C42.8278 111.045 43.5979 110.868 44.2626 111.069C49.1668 112.565 53.9494 114.648 58.9428 115.605C89.9973 121.58 115.864 112.541 136.397 88.6402C137.256 87.643 137.945 86.7584 139.542 88.2783Z" fill="#1C544E"/>
<path d="M163.18 78.6195C157.06 77.8877 152.309 80.6702 147.948 84.4659C146.741 85.5194 146.133 86.6373 145.873 88.31C145.517 90.5858 144.819 93.0547 143.498 94.8963C141.204 98.113 138.359 100.96 135.635 103.863C134.411 105.166 132.928 106.219 131.209 107.699C144.025 111.205 155.414 109.549 165.757 101.981C168.562 99.9305 170.808 97.341 172.202 94.1001C175.274 86.9589 170.954 79.5604 163.18 78.6275V78.6195ZM159.159 90.6421C157.279 90.6019 155.625 88.9614 155.649 87.16C155.665 85.2782 157.505 83.5492 159.386 83.6537C161.275 83.7663 162.774 85.3827 162.726 87.2806C162.677 89.1785 161.072 90.6904 159.159 90.6421Z" fill="#F2FBF9"/>
<path d="M112.33 120.566C117.105 117.518 121.709 114.583 126.662 111.422C127.772 113.192 129.053 115.057 130.147 117.028C133.195 122.48 134.954 128.278 134.8 134.591C134.76 136.191 134.379 137.092 132.587 137.052C128.169 136.955 123.727 137.132 119.326 136.787C115.467 136.481 114.365 134.937 114.535 131.157C114.697 127.474 114.13 123.944 112.322 120.566H112.33Z" fill="#F2FBF9"/>
<path d="M56.9409 125.166C62.137 125.801 66.9277 126.38 71.7184 126.967C72.3426 127.04 72.9748 127.136 73.599 127.168C76.1362 127.313 77.5224 128.399 77.6683 130.908C77.9601 136.071 76.5253 137.695 72.0588 137.743C68.4192 137.784 64.7633 137.526 61.1399 137.204C58.5703 136.979 56.9004 135.25 56.6978 132.428C56.5275 130.047 56.8437 127.627 56.949 125.166H56.9409Z" fill="#F2FBF9"/>
<path d="M53.4392 124.571C44.9521 126.252 36.7487 127.209 28.4399 125.818C27.5807 125.673 26.8106 124.974 26 124.531C26.5593 123.864 26.9889 122.939 27.7104 122.561C30.8718 120.904 34.1061 119.392 37.3404 117.889C37.6971 117.728 38.3618 117.784 38.6617 118.017C42.7553 121.17 47.4893 122.842 52.4259 124.089C52.6772 124.153 52.8961 124.314 53.4392 124.579V124.571Z" fill="#F2FBF9"/>
</g>
<defs>
<clipPath id="clip0_238_193">
<rect width="200" height="200" rx="50" fill="white"/>
</clipPath>
</defs>
</svg>
