<svg width="40" height="21" viewBox="0 0 40 21" fill="none" xmlns="http://www.w3.org/2000/svg">
<path d="M7.18039 16.5973C5.83898 16.2586 4.55263 15.8019 3.44249 14.9475C3.35879 14.8841 3.17818 14.8666 3.08346 14.9125C2.2024 15.3211 1.32355 15.7319 0.464511 16.1799C0.270678 16.2826 0.153936 16.5339 0.00195312 16.7175C0.220016 16.8355 0.431469 17.0278 0.66495 17.0671C2.92267 17.4473 5.14955 17.1851 7.45573 16.7284C7.31035 16.6585 7.25088 16.6126 7.1826 16.5951L7.18039 16.5973ZM14.0395 18.4525C13.9998 17.7686 13.6254 17.4736 12.9337 17.4364C12.7641 17.4277 12.5923 17.4014 12.4227 17.3818C11.1209 17.2244 9.81917 17.0649 8.40727 16.8923C8.37864 17.561 8.29494 18.2187 8.34119 18.8677C8.39626 19.6325 8.85 20.1045 9.54824 20.1657C10.535 20.2509 11.5262 20.3209 12.5152 20.3099C13.7289 20.299 14.1187 19.8576 14.0395 18.4547V18.4525ZM28.3016 14.6787C28.0043 14.1455 27.654 13.6385 27.3545 13.1556C26.0065 14.0144 24.7554 14.812 23.458 15.6402C23.9492 16.558 24.1034 17.5173 24.0593 18.5203C24.0131 19.5495 24.3126 19.9669 25.3611 20.0499C26.5571 20.1439 27.7642 20.0958 28.9646 20.1198C29.4514 20.1308 29.5571 19.886 29.5659 19.4534C29.6078 17.738 29.1298 16.1624 28.3016 14.6787ZM37.2774 4.24434C35.6144 4.04549 34.3237 4.80157 33.1386 5.83298C32.8105 6.11925 32.6453 6.42299 32.5748 6.87751C32.4779 7.49592 32.2884 8.16678 31.9294 8.66719C31.306 9.54127 30.5329 10.3148 29.7928 11.1037C29.4602 11.4577 29.0571 11.744 28.5902 12.146C32.0726 13.0988 35.1673 12.6486 37.9779 10.5924C38.74 10.0351 39.3501 9.33149 39.729 8.45086C40.5638 6.5104 39.3898 4.50001 37.2774 4.24653V4.24434ZM36.1849 7.51122C35.6739 7.50029 35.2246 7.05451 35.2312 6.56503C35.2356 6.05369 35.7356 5.58387 36.2466 5.61228C36.7598 5.64287 37.1673 6.0821 37.1541 6.59781C37.1409 7.11351 36.7047 7.52433 36.1849 7.51122ZM31.0549 5.64069C29.4911 4.85401 27.9492 4.02582 26.4117 3.18889C25.306 2.59014 24.2465 1.89744 23.1188 1.34021C18.784 -0.807845 14.6298 -0.316177 10.7377 2.40221C8.62754 3.87504 7.35661 6.03184 6.36982 8.35034C5.72665 9.85594 4.83898 11.1845 3.60329 12.2815C3.0328 12.7885 2.98434 13.3807 3.52399 13.916C3.85659 14.2438 4.26629 14.5192 4.6914 14.7158C7.60991 16.0597 10.6892 16.7218 13.9139 16.7874C14.8654 16.7065 15.8236 16.665 16.7685 16.5383C22.3919 15.7909 27.0527 13.267 30.751 9.01464C31.1805 8.52078 31.5197 7.92422 31.784 7.32329C32.1386 6.5104 31.8413 6.03621 31.0549 5.64069ZM8.676 12.9873C9.20684 11.5451 9.75089 10.1094 10.2619 8.66064C10.35 8.41371 10.3456 8.10341 10.2839 7.84555C10.1187 7.14629 9.94913 6.43828 9.68701 5.76961C9.44472 5.15776 9.70463 4.82124 10.2002 4.45412C10.5152 5.3872 10.8346 6.27221 11.1077 7.1747C11.2134 7.5287 11.3809 7.63578 11.7531 7.62485C13.3214 7.57459 14.8897 7.56366 16.4602 7.51777C16.6562 7.5134 16.8765 7.43692 17.0329 7.32329C18.0218 6.60654 18.9888 5.85921 19.9756 5.14028C20.2399 4.95016 20.2686 4.76442 20.1915 4.46286C19.9315 3.42271 19.7025 2.37381 19.4514 1.28339C20.002 1.26591 20.3148 1.3861 20.4249 1.9477C20.5967 2.82178 20.8412 3.68056 21.0967 4.53279C21.1584 4.73601 21.3611 4.94361 21.5549 5.05505C23.4007 6.13454 25.2576 7.19218 27.1122 8.25637C27.2752 8.35034 27.436 8.44867 27.6012 8.54482C27.132 9.22879 27.1012 9.23534 26.4492 8.84419C24.8457 7.8827 23.2421 6.91903 21.6364 5.95754C21.4426 5.84172 21.2421 5.73028 21.0307 5.61009C20.0527 6.46888 19.0835 7.30144 18.1474 8.16678C18.024 8.28041 17.9932 8.57978 18.0351 8.76771C18.3721 10.3039 18.7333 11.8357 19.1033 13.4244C18.7399 13.5227 18.3985 13.6167 17.9888 13.7281C17.7884 12.6749 17.5945 11.6762 17.4051 10.6754C17.2928 10.0788 17.1584 9.48446 17.0879 8.88353C17.0439 8.49675 16.8963 8.38093 16.513 8.38749C14.8875 8.40934 13.2575 8.41371 11.632 8.4006C11.3038 8.39841 11.1672 8.50549 11.0681 8.81141C10.5857 10.3279 10.0791 11.8401 9.57908 13.3523C9.53283 13.4921 9.47336 13.6298 9.41168 13.7871C9.11212 13.7216 8.83679 13.6582 8.48877 13.5795C8.55705 13.361 8.60771 13.1687 8.6782 12.983L8.676 12.9873ZM29.8281 8.38093C24.828 13.8986 18.6078 16.2673 11.1628 15.4282C9.13415 15.1988 7.20022 14.6153 5.33898 13.7915C4.99536 13.6407 4.67818 13.4309 4.34778 13.2496C4.35659 13.184 4.36541 13.1184 4.37862 13.0529C4.57466 13.0529 4.78391 13.0048 4.96453 13.0594C6.29493 13.4659 7.59449 14.0297 8.95353 14.2919C17.3919 15.9155 24.4205 13.4572 29.9999 6.96492C30.2333 6.69395 30.4206 6.45358 30.8545 6.86658C30.5241 7.36044 30.24 7.92641 29.8281 8.37874V8.38093Z" fill="#1C544E"/>
<path d="M31.0527 5.64068C29.4888 4.85401 27.9491 4.02363 26.4095 3.18889C25.3037 2.59014 24.2443 1.89744 23.1165 1.34021C18.7817 -0.807844 14.6275 -0.316177 10.7354 2.40221C8.62527 3.87504 7.35434 6.03183 6.36755 8.35033C5.72438 9.85812 4.83451 11.1845 3.59882 12.2815C3.02833 12.7885 2.97767 13.3829 3.51953 13.916C3.85213 14.2438 4.26182 14.5192 4.68693 14.7158C7.60545 16.0575 10.687 16.7218 13.9094 16.7852C14.861 16.7065 15.8191 16.6607 16.7641 16.5361C22.3874 15.7888 27.0482 13.267 30.7465 9.01245C31.1738 8.51859 31.5152 7.92422 31.7773 7.32111C32.132 6.50821 31.8346 6.03621 31.0483 5.64068H31.0527ZM8.67373 12.9873C9.20457 11.5451 9.75082 10.1094 10.2596 8.66063C10.3477 8.41589 10.3433 8.10341 10.2817 7.84555C10.1165 7.14629 9.94907 6.43828 9.68695 5.76961C9.44466 5.15775 9.70457 4.82123 10.2002 4.45193C10.5151 5.38502 10.8323 6.27221 11.1077 7.17251C11.2134 7.52651 11.3808 7.63578 11.753 7.62266C13.3213 7.5724 14.8918 7.56148 16.4601 7.51559C16.6561 7.51122 16.8764 7.43474 17.0328 7.32111C18.0218 6.60436 18.991 5.85702 19.9733 5.13809C20.2399 4.95016 20.2663 4.76442 20.1892 4.46286C19.9293 3.4227 19.7024 2.37381 19.4513 1.28339C19.9998 1.26372 20.3147 1.3861 20.4249 1.94769C20.5967 2.82178 20.8412 3.68056 21.0967 4.53279C21.1584 4.73601 21.361 4.94361 21.5548 5.05724C23.4007 6.13673 25.2575 7.19436 27.1121 8.25855C27.2751 8.35252 27.4359 8.45085 27.6011 8.547C27.1297 9.23097 27.1011 9.23753 26.4491 8.84637C24.8456 7.88489 23.2421 6.9234 21.6363 5.95973C21.4425 5.84172 21.2421 5.73246 21.0306 5.61228C20.0504 6.47106 19.0835 7.30362 18.1473 8.16896C18.0218 8.28478 17.9931 8.58415 18.035 8.77208C18.372 10.3061 18.7332 11.8379 19.1055 13.4287C18.7421 13.5271 18.4006 13.621 17.9909 13.7325C17.7905 12.6792 17.5967 11.6806 17.4094 10.6798C17.2971 10.0832 17.1627 9.49101 17.0923 8.88789C17.0482 8.50111 16.9028 8.3853 16.5174 8.39404C14.8918 8.41589 13.2619 8.41808 11.6363 8.40715C11.3081 8.40715 11.1693 8.51204 11.0724 8.81797C10.59 10.3345 10.0834 11.8445 9.58343 13.3588C9.53497 13.4965 9.4777 13.6363 9.41382 13.7937C9.11426 13.7259 8.83893 13.6647 8.49091 13.5861C8.55919 13.3654 8.60985 13.1753 8.68034 12.9895L8.67373 12.9873ZM29.8258 8.38093C24.828 13.8964 18.6033 16.2673 11.1627 15.4282C9.13408 15.2009 7.19795 14.6153 5.33891 13.7915C4.9953 13.6407 4.67812 13.4309 4.34772 13.2496C4.35653 13.1818 4.36534 13.1184 4.37636 13.0529C4.57239 13.0529 4.78165 13.0048 4.96226 13.0594C6.29487 13.4659 7.59443 14.0319 8.95127 14.2919C17.3896 15.9155 24.4183 13.4593 29.9976 6.96492C30.2311 6.69395 30.4183 6.45358 30.8522 6.86658C30.524 7.36044 30.2377 7.9264 29.8258 8.38093Z" fill="#F2FBF9"/>
<path d="M27.6024 8.54927C27.131 9.23324 27.1024 9.23979 26.4504 8.84864C24.8469 7.88715 23.2433 6.92566 21.6376 5.96199C21.4438 5.84399 21.2433 5.73473 21.0319 5.61454C20.0517 6.47333 19.0847 7.30589 18.1486 8.17123C18.0231 8.28704 17.9944 8.58642 18.0363 8.77434C18.3733 10.3084 18.7345 11.8402 19.1068 13.431C18.7433 13.5293 18.4019 13.6233 17.9922 13.7348C17.7918 12.6815 17.5979 11.6828 17.4107 10.682C17.2984 10.0855 17.164 9.49327 17.0935 8.89016C17.0495 8.50338 16.9041 8.38756 16.5187 8.3963C14.8931 8.41816 13.2631 8.42034 11.6376 8.40941C11.3094 8.40941 11.1706 8.51431 11.0737 8.82023C10.5913 10.3368 10.0847 11.8467 9.5847 13.3611C9.53625 13.4988 9.47898 13.6386 9.4151 13.7959C9.11554 13.7282 8.84021 13.667 8.49219 13.5883C8.56047 13.3676 8.61113 13.1775 8.68162 12.9918C9.21245 11.5496 9.75871 10.1139 10.2675 8.66508C10.3556 8.42034 10.3512 8.10786 10.2896 7.85C10.1244 7.15074 9.95695 6.44273 9.69484 5.77406C9.45255 5.1622 9.71246 4.82568 10.2081 4.45638C10.523 5.38947 10.8402 6.27666 11.1155 7.17696C11.2213 7.53096 11.3887 7.64022 11.7609 7.62711C13.3292 7.57685 14.8997 7.56593 16.468 7.52004C16.664 7.51567 16.8843 7.43919 17.0407 7.32556C18.0297 6.60881 18.9988 5.86147 19.9812 5.14254C20.2477 4.95461 20.2742 4.76887 20.1971 4.46731C19.9372 3.42716 19.7103 2.37826 19.4592 1.28784C20.0077 1.26817 20.3226 1.39054 20.4328 1.95214C20.6046 2.82622 20.8491 3.68501 21.1046 4.53724C21.1662 4.74046 21.3689 4.94806 21.5627 5.06169C23.4085 6.14118 25.2654 7.19881 27.12 8.26301C27.283 8.35697 27.4438 8.45531 27.609 8.55145L27.6024 8.54927Z" fill="#1C544E"/>
<path d="M30.8522 6.86876C30.524 7.36261 30.2376 7.92858 29.8257 8.3831C24.8279 13.8986 18.6032 16.2695 11.1627 15.4304C9.13402 15.2031 7.19789 14.6175 5.33885 13.7937C4.99524 13.6429 4.67805 13.4331 4.34766 13.2517C4.35647 13.184 4.36528 13.1206 4.37629 13.0551C4.57233 13.0551 4.78158 13.007 4.9622 13.0616C6.2948 13.4681 7.59437 14.034 8.9512 14.2941C17.3896 15.9177 24.4182 13.4615 29.9975 6.96709C30.231 6.69613 30.4182 6.45575 30.8522 6.86876Z" fill="#1C544E"/>
<path d="M37.2751 4.24427C35.6121 4.04542 34.3214 4.8015 33.1364 5.83291C32.8082 6.11918 32.643 6.42292 32.5725 6.87744C32.4756 7.49585 32.2861 8.16671 31.9271 8.66712C31.3038 9.5412 30.5306 10.3148 29.7905 11.1036C29.4579 11.4576 29.0549 11.7439 28.5879 12.146C32.0703 13.0987 35.165 12.6486 37.9756 10.5923C38.7377 10.0351 39.3478 9.33142 39.7267 8.45079C40.5615 6.51033 39.3875 4.49994 37.2751 4.24646V4.24427ZM36.1826 7.51115C35.6716 7.50022 35.2223 7.05444 35.2289 6.56496C35.2333 6.05362 35.7333 5.5838 36.2443 5.61221C36.7575 5.6428 37.165 6.08203 37.1518 6.59774C37.1386 7.11344 36.7025 7.52426 36.1826 7.51115Z" fill="#F2FBF9"/>
<path d="M23.4573 15.6423C24.7546 14.8141 26.0057 14.0165 27.3516 13.1577C27.6533 13.6385 28.0014 14.1454 28.2987 14.6808C29.1269 16.1624 29.6049 17.7379 29.563 19.4533C29.552 19.8881 29.4485 20.1329 28.9617 20.122C27.7613 20.0957 26.5542 20.1438 25.3582 20.0498C24.3097 19.9668 24.0101 19.5472 24.0564 18.5202C24.1005 17.5194 23.9463 16.5601 23.4551 15.6423H23.4573Z" fill="#F2FBF9"/>
<path d="M8.40762 16.8921C9.81952 17.0647 11.1213 17.2221 12.4231 17.3816C12.5927 17.4012 12.7645 17.4275 12.9341 17.4362C13.6235 17.4755 14.0002 17.7705 14.0398 18.4523C14.1191 19.8552 13.7292 20.2966 12.5156 20.3097C11.5266 20.3207 10.5332 20.2507 9.54859 20.1633C8.85035 20.1022 8.39661 19.6323 8.34154 18.8653C8.29529 18.2185 8.38119 17.5608 8.40982 16.8921H8.40762Z" fill="#F2FBF9"/>
<path d="M7.45597 16.7307C5.1498 17.1874 2.92071 17.4474 0.662997 17.0694C0.429516 17.03 0.220265 16.8399 0 16.7197C0.151983 16.5384 0.268724 16.2871 0.46476 16.1844C1.32379 15.7342 2.20265 15.3234 3.08151 14.9148C3.17842 14.8711 3.35904 14.8864 3.44054 14.9497C4.55288 15.8063 5.83923 16.2608 7.18064 16.5995C7.24892 16.617 7.3084 16.6607 7.45597 16.7328V16.7307Z" fill="#F2FBF9"/>
</svg>
